<svg width="161" height="40" viewBox="0 0 161 40" xmlns="http://www.w3.org/2000/svg" xmlns:xlink="http://www.w3.org/1999/xlink"><defs><path id="a" d="M0 0h161v39.375H0z"/></defs><g fill="none" fill-rule="evenodd"><mask id="b" fill="#fff"><use xlink:href="#a"/></mask><path d="M161 28.395c0-1.692-1.386-3.064-3.095-3.064-1.71 0-3.094 1.372-3.094 3.064s1.385 3.063 3.094 3.063c1.71 0 3.095-1.371 3.095-3.063zm-15.965-10.29c.026-1-.307-1.858-1-2.57-.691-.71-1.583-1.067-2.676-1.067-.665 0-1.25.106-1.757.318a4.4 4.4 0 00-1.298.81c-.36.33-.64.711-.838 1.146-.2.436-.314.89-.34 1.363h7.91zm5.072 8.462c-.958 1.212-2.17 2.147-3.635 2.806a10.99 10.99 0 01-4.552.988c-1.493 0-2.897-.236-4.215-.711-1.32-.475-2.464-1.153-3.435-2.037a9.557 9.557 0 01-2.297-3.181c-.56-1.24-.838-2.623-.838-4.151 0-1.529.279-2.912.838-4.152a9.566 9.566 0 012.297-3.182c.971-.883 2.116-1.562 3.435-2.037a12.38 12.38 0 014.215-.711c1.384 0 2.642.238 3.773.711a7.868 7.868 0 012.877 2.037c.786.883 1.392 1.943 1.817 3.182.427 1.24.64 2.623.64 4.152v1.858h-13.901c.24 1.133.759 2.035 1.558 2.707.798.672 1.784 1.01 2.956 1.01.985 0 1.817-.22 2.496-.654a6.677 6.677 0 001.777-1.68l4.194 3.045zm-21.409-11.149h-5.272v6.404c0 .528.026 1.009.079 1.443.054.434.173.811.36 1.127.186.316.472.56.86.731.384.172.897.258 1.536.258.32 0 .74-.034 1.258-.1.52-.065.912-.217 1.18-.455v4.942a9.154 9.154 0 01-2.077.475c-.72.08-1.426.118-2.118.118a11.63 11.63 0 01-2.797-.316c-.852-.21-1.597-.547-2.236-1.008a4.74 4.74 0 01-1.498-1.798c-.36-.739-.54-1.635-.54-2.689v-9.132H113.6v-4.745h3.835V4.981h5.992v5.692h5.272v4.745zm-23.966 6.049c-.453 0-1.019.019-1.698.059a8.624 8.624 0 00-1.956.336c-.627.185-1.16.46-1.599.83-.44.37-.66.883-.66 1.541 0 .712.306 1.24.92 1.582a3.873 3.873 0 001.918.514c.585 0 1.15-.08 1.696-.238a5.048 5.048 0 001.459-.672 3.263 3.263 0 001.019-1.107c.252-.448.378-.974.378-1.58v-1.265h-1.477zm1.477 6.008h-.08c-.665 1.028-1.55 1.766-2.655 2.214a9.216 9.216 0 01-3.496.672 9.1 9.1 0 01-2.616-.375 6.633 6.633 0 01-2.217-1.127A5.432 5.432 0 0193.627 27c-.373-.737-.56-1.594-.56-2.57 0-1.106.207-2.041.62-2.806a5.507 5.507 0 011.678-1.898 8.323 8.323 0 012.416-1.166 17.696 17.696 0 012.817-.613 27.21 27.21 0 012.916-.238c.971-.025 1.87-.038 2.695-.038 0-1.055-.378-1.892-1.138-2.512-.759-.618-1.657-.928-2.697-.928-.985 0-1.883.204-2.694.613a7.34 7.34 0 00-2.178 1.68l-3.196-3.242a11.025 11.025 0 013.915-2.313 14.122 14.122 0 014.633-.771c1.757 0 3.203.217 4.335.653 1.13.434 2.037 1.074 2.715 1.916.679.844 1.152 1.88 1.419 3.105.265 1.225.4 2.641.4 4.25v9.763h-5.514v-2.411zM69.781 10.673h6.471l4.913 13.047h.08l4.553-13.047h6.033l-7.67 19.213H77.81l-8.03-19.213zm-8.268 19.213h5.991V10.673h-5.991v19.213zm-.48-25.261c0-.949.34-1.76 1.018-2.431a3.365 3.365 0 012.457-1.008c.96 0 1.778.335 2.456 1.008.68.672 1.02 1.482 1.02 2.43 0 .95-.34 1.76-1.02 2.432a3.363 3.363 0 01-2.456 1.01 3.366 3.366 0 01-2.457-1.01c-.679-.672-1.018-1.481-1.018-2.431zM41.541 20.162c0 .632.12 1.232.36 1.798a4.63 4.63 0 001.018 1.503c.44.435.945.784 1.518 1.047a4.472 4.472 0 001.897.395c.666 0 1.291-.13 1.877-.395a5.203 5.203 0 001.539-1.047 4.618 4.618 0 001.378-3.301 4.632 4.632 0 00-1.378-3.302 5.215 5.215 0 00-1.539-1.047 4.525 4.525 0 00-1.877-.395 4.49 4.49 0 00-1.897.395 5.277 5.277 0 00-1.518 1.047c-.44.436-.779.937-1.019 1.503a4.576 4.576 0 00-.36 1.799zm15.1 8.104c0 3.637-.927 6.398-2.777 8.282-1.851 1.885-4.667 2.827-8.448 2.827-1.732 0-3.436-.192-5.113-.573-1.677-.382-3.222-1.127-4.634-2.234l3.316-4.903a12.57 12.57 0 002.936 1.819c1.024.448 2.15.672 3.375.672 1.837 0 3.19-.441 4.054-1.325.865-.882 1.298-2.009 1.298-3.379v-1.858h-.08c-.692.923-1.551 1.575-2.576 1.957-1.025.381-1.99.574-2.896.574-1.437 0-2.743-.245-3.915-.733a8.715 8.715 0 01-3.015-2.055c-.838-.882-1.485-1.93-1.938-3.143-.453-1.212-.678-2.544-.678-3.993 0-1.265.205-2.503.619-3.716.412-1.211.999-2.28 1.757-3.202a8.781 8.781 0 012.776-2.234c1.092-.565 2.33-.85 3.715-.85.852 0 1.631.094 2.337.277a9.191 9.191 0 011.898.712 6.96 6.96 0 011.437.969c.4.355.72.705.959 1.047h.08v-2.53h5.513v17.592zm-30.678 1.62h5.992V10.673h-5.992v19.213zm-.479-25.261c0-.949.339-1.76 1.018-2.431a3.365 3.365 0 012.457-1.008c.959 0 1.778.335 2.456 1.008.68.672 1.02 1.482 1.02 2.43 0 .95-.34 1.76-1.02 2.432a3.364 3.364 0 01-2.456 1.01 3.366 3.366 0 01-2.457-1.01 3.291 3.291 0 01-1.018-2.431zM15.578 20.28c0-1.45-.42-2.623-1.259-3.52-.838-.894-2.017-1.343-3.534-1.343-1.518 0-2.697.449-3.536 1.344-.838.896-1.258 2.07-1.258 3.519 0 1.448.42 2.622 1.258 3.518.84.896 2.018 1.344 3.536 1.344 1.517 0 2.696-.448 3.534-1.344.84-.896 1.259-2.07 1.259-3.518zm5.512 9.605h-5.512v-2.53h-.08c-.24.344-.553.692-.939 1.049a7.165 7.165 0 01-1.357.968 8.45 8.45 0 01-1.718.712 6.85 6.85 0 01-1.938.276c-1.437 0-2.743-.244-3.914-.73a8.718 8.718 0 01-3.015-2.057 9.138 9.138 0 01-1.938-3.142C.226 23.22 0 21.888 0 20.439c0-1.345.206-2.629.619-3.855a10.552 10.552 0 011.757-3.261 8.58 8.58 0 012.776-2.274c1.092-.565 2.33-.85 3.716-.85 1.251 0 2.416.192 3.495.573a5.597 5.597 0 012.656 1.957h.08V0h5.99v29.886z" fill="#FF4449" mask="url(#b)"/></g></svg>