<svg width="708" height="177" viewBox="0 0 708 177" fill="none" xmlns="http://www.w3.org/2000/svg">
<g clip-path="url(#clip0_26_6)">
<path d="M92.954 134.186H68.6827V122.699H68.1663C67.1335 124.265 65.5842 125.832 64.035 127.398C62.4858 128.965 60.4201 130.531 57.8381 131.575C55.7724 132.619 53.1904 134.186 50.0919 134.708C47.5098 135.752 44.4114 135.752 41.3129 135.752C35.116 135.752 29.4354 134.708 24.2713 132.619C19.1072 130.531 14.4595 127.398 10.8446 123.221C7.74617 120.088 5.16411 115.389 3.09847 109.646C1.03282 104.425 0 98.1593 0 91.8938C0 85.6283 1.03282 79.885 2.58206 74.6637C4.6477 68.9204 7.22976 64.2212 10.3282 60.0442C13.4267 55.8673 17.558 52.2124 22.7221 49.6018C27.3698 46.9911 33.0503 45.9469 39.2473 45.9469C44.9278 45.9469 50.0919 46.9911 54.7396 48.5575C59.3873 50.1239 63.5186 53.2566 66.6171 57.4336H67.1335V0H92.954V134.186ZM68.6827 91.3717C68.6827 85.1062 66.6171 79.3628 63.0022 75.708C59.3873 71.531 54.2232 69.4425 47.5098 69.4425C40.7965 69.4425 35.6324 71.531 32.0175 75.708C28.4026 79.885 26.337 85.1062 26.337 91.3717C26.337 97.6372 28.4026 103.381 32.0175 107.035C35.6324 111.212 40.7965 113.301 47.5098 113.301C54.2232 113.301 59.3873 111.212 63.0022 107.035C66.6171 102.858 68.6827 97.6372 68.6827 91.3717ZM112.061 20.885C112.061 16.708 113.61 13.0531 116.709 9.92035C119.807 6.78761 123.422 5.22124 127.554 5.22124C131.685 5.22124 135.3 6.78761 138.398 9.92035C141.497 13.0531 143.046 16.708 143.046 20.885C143.046 25.0619 141.497 28.7168 138.398 31.8496C135.3 34.9823 131.685 36.5487 127.554 36.5487C123.422 36.5487 119.807 34.9823 116.709 31.8496C113.61 28.7168 112.061 25.0619 112.061 20.885ZM114.127 48.0354H140.464V134.186H114.127V48.0354ZM248.91 126.876C248.91 143.062 244.779 155.593 236.516 163.947C228.254 172.301 215.86 176.478 199.335 176.478C191.589 176.478 184.359 175.434 176.613 173.867C169.383 172.301 162.67 168.646 156.473 163.947L170.932 142.018C175.063 145.673 179.195 148.283 183.842 150.372C188.49 152.46 193.138 153.504 198.818 153.504C207.081 153.504 212.761 151.416 216.893 147.761C220.508 143.584 222.573 138.885 222.573 132.619V124.265H222.057C218.958 128.442 215.344 131.575 210.696 133.142C206.048 134.708 201.917 135.752 197.786 135.752C191.589 135.752 185.908 134.708 180.744 132.619C175.58 130.531 170.932 127.398 167.317 123.221C163.702 119.044 160.604 114.345 158.538 109.124C156.473 103.903 155.44 97.6372 155.44 91.3717C155.44 85.6283 156.473 79.885 158.022 74.6637C160.088 69.4425 162.67 64.2212 165.768 60.0442C168.867 55.8673 172.998 52.7345 178.162 50.1239C182.81 47.5133 188.49 46.469 194.687 46.469C198.302 46.469 201.917 46.9911 205.015 47.5133C208.114 48.5575 210.696 49.6018 213.278 50.646C215.86 51.6903 217.926 53.2566 219.475 54.823C221.024 56.3894 222.573 57.9557 223.606 59.5221H224.123V48.0354H248.394V126.876H248.91ZM182.81 90.8495C182.81 93.4602 183.326 96.5929 184.359 98.6814C185.392 101.292 186.941 103.381 189.007 105.469C191.072 107.558 193.138 109.124 195.72 110.168C198.302 111.212 200.884 111.735 203.982 111.735C207.081 111.735 209.663 111.212 212.245 110.168C214.827 109.124 216.893 107.558 218.958 105.469C221.024 103.381 222.573 101.292 223.606 98.6814C224.639 96.0708 225.155 93.4602 225.155 90.8495C225.155 88.2389 224.639 85.1062 223.606 83.0177C222.573 80.4071 221.024 78.3186 218.958 76.2301C216.893 74.1416 214.827 72.5752 212.245 71.531C209.663 70.4867 207.081 69.9646 203.982 69.9646C200.884 69.9646 198.302 70.4867 195.72 71.531C193.138 72.5752 191.072 74.1416 189.007 76.2301C186.941 78.3186 185.392 80.4071 184.359 83.0177C183.326 85.1062 182.81 87.7168 182.81 90.8495ZM268.534 20.885C268.534 16.708 270.083 13.0531 273.182 9.92035C275.764 6.78761 279.379 5.22124 284.026 5.22124C288.158 5.22124 291.772 6.78761 294.871 9.92035C297.969 13.0531 299.519 16.708 299.519 20.885C299.519 25.0619 297.969 28.7168 294.871 31.8496C291.772 34.9823 288.158 36.5487 284.026 36.5487C279.895 36.5487 276.28 34.9823 273.182 31.8496C270.083 28.7168 268.534 25.0619 268.534 20.885ZM270.6 48.0354H296.937V134.186H270.6V48.0354ZM306.748 48.0354H335.667L357.357 106.513H357.873L378.013 48.0354H404.35L370.783 134.186H342.897L306.748 48.0354ZM467.352 123.221C464.254 127.92 460.122 131.053 455.475 133.142C450.827 135.23 445.663 136.274 439.982 136.274C435.851 136.274 432.236 135.752 428.621 134.708C425.007 133.664 421.908 132.097 418.81 129.487C416.228 127.398 413.646 124.265 412.096 121.133C410.547 118 409.514 113.823 409.514 109.646C409.514 104.425 410.547 100.248 412.096 97.115C413.646 93.9823 416.228 90.8496 419.326 88.7611C422.424 86.6726 426.039 84.5841 430.171 83.5398C434.302 82.4956 438.433 81.4513 442.565 80.9292C446.696 80.4071 451.344 79.885 455.475 79.885C459.606 79.885 463.737 79.885 467.352 79.885C467.352 75.1858 465.803 71.531 462.188 68.3982C459.09 65.7876 454.958 64.2212 450.311 64.2212C446.179 64.2212 442.048 65.2655 438.433 66.8319C434.818 68.9204 431.72 71.0088 428.621 74.1416L414.678 59.5221C419.842 54.823 425.523 51.6903 431.72 49.0796C438.433 46.9911 445.147 45.4248 451.86 45.4248C459.606 45.4248 465.803 46.469 470.967 48.5575C476.131 50.646 479.746 53.2566 482.845 57.4336C485.943 61.0885 488.009 65.7876 489.042 71.531C490.074 77.2743 490.591 83.5398 490.591 90.8495V134.708H466.319V123.221H467.352ZM460.639 96.5929C458.573 96.5929 455.991 96.5929 453.409 97.115C450.311 97.115 447.729 97.6372 444.63 98.6814C442.048 99.7257 439.466 100.77 437.4 102.336C435.335 103.903 434.302 106.513 434.302 109.124C434.302 112.257 435.851 114.867 438.433 116.434C441.015 118 444.114 118.522 446.696 118.522C449.278 118.522 451.86 118 453.926 117.478C456.508 116.956 458.573 115.911 460.123 114.345C462.188 113.301 463.737 111.212 464.77 109.124C465.803 107.035 466.319 104.947 466.319 101.814V96.0708H460.639V96.5929ZM565.987 69.4425H542.748V98.1593C542.748 100.77 542.748 102.858 543.265 104.425C543.265 106.513 543.781 108.08 544.814 109.646C545.847 111.212 546.88 112.257 548.429 112.779C549.978 113.301 552.56 113.823 555.142 113.823C556.691 113.823 558.241 113.823 560.823 113.301C562.888 112.779 564.954 112.257 565.987 111.212V133.664C562.888 134.708 559.79 135.23 556.691 135.752C553.593 136.274 550.495 136.274 547.396 136.274C542.748 136.274 538.617 135.752 535.002 134.708C531.387 133.664 527.772 132.097 525.19 130.009C522.608 127.92 520.026 125.31 518.477 122.177C516.928 119.044 515.895 114.867 515.895 110.168V68.9203H498.853V48.0354H515.895V22.4513H542.232V48.0354H565.47V69.4425H565.987ZM660.49 119.566C656.359 124.788 651.195 128.965 644.481 132.097C637.768 135.23 631.571 136.796 624.341 136.796C617.628 136.796 611.431 135.752 605.751 133.664C600.07 131.575 594.906 128.442 590.775 124.265C586.643 120.088 583.028 115.389 580.446 110.168C577.864 104.425 576.831 98.1593 576.831 91.3717C576.831 84.5841 577.864 78.3186 580.446 72.5752C583.028 66.8319 586.127 62.1327 590.775 58.4779C594.906 54.3009 600.07 51.6903 605.751 49.0796C611.431 46.9911 617.628 45.9469 624.341 45.9469C630.538 45.9469 636.219 46.9911 640.866 49.0796C646.031 51.1681 650.162 54.3009 653.777 58.4779C657.392 62.6549 659.974 67.354 661.523 72.5752C663.589 78.3186 664.105 84.5841 664.105 91.3717V99.7257H603.168C604.201 104.947 606.267 109.124 609.882 111.735C613.497 114.867 617.628 116.434 622.792 116.434C626.923 116.434 630.538 115.389 633.637 113.301C636.735 111.212 639.317 108.602 641.383 105.991L660.49 119.566ZM637.768 81.4513C637.768 76.7522 636.219 73.0973 633.12 69.9646C630.022 66.8319 626.407 65.2655 621.243 65.2655C618.144 65.2655 615.562 65.7876 613.497 66.8319C611.431 67.8761 609.365 68.9203 607.816 70.4867C606.267 72.0531 605.234 73.6195 604.201 75.708C603.168 77.7965 602.652 79.8849 602.652 81.9734H637.768V81.4513ZM708 127.398C708 119.566 701.803 113.823 694.573 113.823C686.827 113.823 681.147 120.088 681.147 127.398C681.147 135.23 687.344 140.973 694.573 140.973C702.319 141.496 708 135.23 708 127.398Z" fill="white"/>
</g>
<defs>
<clipPath id="clip0_26_6">
<rect width="708" height="177" fill="white"/>
</clipPath>
</defs>
</svg>
